<?xml version="1.0" encoding="UTF-8" standalone="no"?>
<svg
   xmlns:dc="http://purl.org/dc/elements/1.1/"
   xmlns:cc="http://creativecommons.org/ns#"
   xmlns:rdf="http://www.w3.org/1999/02/22-rdf-syntax-ns#"
   xmlns:svg="http://www.w3.org/2000/svg"
   xmlns="http://www.w3.org/2000/svg"
   xmlns:sodipodi="http://sodipodi.sourceforge.net/DTD/sodipodi-0.dtd"
   xmlns:inkscape="http://www.inkscape.org/namespaces/inkscape"
   width="400"
   height="400"
   viewBox="0 0 105.83333 105.83334"
   version="1.1"
   id="svg8"
   inkscape:version="1.0.1 (0767f8302a, 2020-10-17)"
   sodipodi:docname="favicon.svg">
  <defs
     id="defs2" />
  <sodipodi:namedview
     id="base"
     pagecolor="#ffffff"
     bordercolor="#666666"
     borderopacity="1.0"
     inkscape:pageopacity="0.0"
     inkscape:pageshadow="2"
     inkscape:zoom="0.98994949"
     inkscape:cx="306.68873"
     inkscape:cy="398.19645"
     inkscape:document-units="mm"
     inkscape:current-layer="layer1"
     inkscape:document-rotation="0"
     showgrid="false"
     units="px"
     inkscape:pagecheckerboard="true"
     inkscape:window-width="1920"
     inkscape:window-height="1135"
     inkscape:window-x="0"
     inkscape:window-y="0"
     inkscape:window-maximized="1" />
  <metadata
     id="metadata5">
    <rdf:RDF>
      <cc:Work
         rdf:about="">
        <dc:format>image/svg+xml</dc:format>
        <dc:type
           rdf:resource="http://purl.org/dc/dcmitype/StillImage" />
        <dc:title></dc:title>
      </cc:Work>
    </rdf:RDF>
  </metadata>
  <g
     inkscape:label="Layer 1"
     inkscape:groupmode="layer"
     id="layer1">
    <path
       style="fill:#acccd9;stroke:none;stroke-width:6.46033125;stroke-linecap:butt;stroke-linejoin:miter;stroke-opacity:1;stroke-miterlimit:4;stroke-dasharray:none;fill-opacity:1"
       d="M 5.1717148,47.527687 15.314778,35.598795 17.134814,29.187177 22.806616,24.487039 38.041426,22.34491 58.2547,13.507747 81.813412,16.928232 88.625068,33.447636 99.787494,43.651969 100.66673,55.431059 80.148432,92.328066 59.937923,91.910579 47.249684,85.285802 25.071874,87.76772 8.5458605,69.576816 Z"
       id="path10" />
    <path
       style="fill:#708596;fill-opacity:1;stroke:none;stroke-width:0.264583px;stroke-linecap:butt;stroke-linejoin:miter;stroke-opacity:1"
       d="M 65.362127,16.054097 66.882509,28.930837 79.168328,41.815081 77.53669,51.474173 76.608948,65.65276 61.434452,70.375593 44.82848,65.077781 36.092119,73.038165 25.251492,70.541053 7.9184417,64.587145 25.071874,87.76772 47.249683,85.285801 59.937922,91.910579 80.148432,92.328065 100.66673,55.43106 99.787492,43.651968 88.625068,33.447635 81.813412,16.928232 Z"
       id="path837"
       sodipodi:nodetypes="ccccccccccccccccccc" />
    <path
       style="fill:none;fill-opacity:1;stroke:#19005b;stroke-width:6.46033;stroke-linecap:butt;stroke-linejoin:miter;stroke-miterlimit:4;stroke-dasharray:none;stroke-opacity:1"
       d="M 5.1717136,47.527687 15.314778,35.598796 17.134814,29.187178 22.806616,24.48704 38.041425,22.344911 58.2547,13.507747 81.813412,16.928233 88.625067,33.447637 99.787494,43.65197 100.66673,55.431061 80.148431,92.328067 59.937924,91.910581 47.249684,85.285803 25.071874,87.767722 8.5458596,69.576819 Z"
       id="path10-3" />
    <ellipse
       style="fill:#8ea1b1;fill-opacity:1;stroke:#19005b;stroke-width:4.03;stroke-miterlimit:4;stroke-dasharray:none;stroke-opacity:1"
       id="path858-7"
       cx="69.786674"
       cy="71.393387"
       rx="8.9046268"
       ry="4.9728928" />
    <circle
       style="fill:none;fill-opacity:1;stroke:#19005b;stroke-width:4.232;stroke-miterlimit:4;stroke-dasharray:none;stroke-opacity:1"
       id="path858"
       cx="31.485071"
       cy="50.973324"
       r="12.761756" />
    <circle
       style="fill:none;fill-opacity:1;stroke:#19005b;stroke-width:4.321;stroke-miterlimit:4;stroke-dasharray:none;stroke-opacity:1"
       id="path858-6"
       cx="63.422844"
       cy="35.49942"
       r="7.02459" />
  </g>
</svg>
